# xmcd
#
# Track frame offsets: 
#        150
#        9307
#        23159
#        30100
#        39856
#        50308
#        61164
#        68816
#        80417
#        89684
#        97621
#        108714
#        117445
#        130412
#        142432
#        153163
#        165162
#        178004
#        189822
#        202441
#
# Disc length: 2869 seconds
#
# Revision: 0
# Processed by: cddbd v1.5.2PL0 Copyright (c) Steve Scherf et al.
# Submitted via: ExactAudioCopyFreeDBPlugin 1.0
#
DISCID=000b3314
DTITLE=Merle Travis - The Merle Travis Guitar
DYEAR=1992
DGENRE=Country
TTITLE0=Blue Smoke
TTITLE1=Black Diamond Blues
TTITLE2=Bicycle Built for Two
TTITLE3=Saturday Night Shuffle
TTITLE4=Bugle Call Rag
TTITLE5=Truck Me Up In MY Old Tucky Home
TTITLE6=Walkin the Strings
TTITLE7=Memphis Blues
TTITLE8=Sheik of Araby
TTITLE9=Blue Bell
TTITLE10=The Waltz You Saved For Me
TTITLE11=Rockabye Rock
TTITLE12=Sweet Temptation
TTITLE13=No Vacancy
TTITLE14=Done Rovin'
TTITLE15=Nine Pound Hammer
TTITLE16=Sixteen Tons
TTITLE17=Blues, Stay Away From Me
TTITLE18=Dark As A Dungeon
TTITLE19=I Am A Pilgrim
EXTD=
EXTT0=
EXTT1=
EXTT2=
EXTT3=
EXTT4=
EXTT5=
EXTT6=
EXTT7=
EXTT8=
EXTT9=
EXTT10=
EXTT11=
EXTT12=
EXTT13=
EXTT14=
EXTT15=
EXTT16=
EXTT17=
EXTT18=
EXTT19=
PLAYORDER=
